<mxfile host="app.diagrams.net" modified="2023-07-10T06:24:48.430Z" agent="Mozilla/5.0 (Windows NT 10.0; Win64; x64) AppleWebKit/537.36 (KHTML, like Gecko) Chrome/114.0.0.0 Safari/537.36" etag="gLtrfIgytZLrfYpsKSWY" version="21.6.1" type="github">
  <diagram id="C5RBs43oDa-KdzZeNtuy" name="Page-1">
    <mxGraphModel dx="472" dy="786" grid="1" gridSize="10" guides="1" tooltips="1" connect="1" arrows="1" fold="1" page="1" pageScale="1" pageWidth="827" pageHeight="1169" math="0" shadow="0">
      <root>
        <mxCell id="WIyWlLk6GJQsqaUBKTNV-0" />
        <mxCell id="WIyWlLk6GJQsqaUBKTNV-1" parent="WIyWlLk6GJQsqaUBKTNV-0" />
        <mxCell id="WIyWlLk6GJQsqaUBKTNV-2" value="" style="rounded=0;html=1;jettySize=auto;orthogonalLoop=1;fontSize=11;endArrow=block;endFill=0;endSize=8;strokeWidth=1;shadow=0;labelBackgroundColor=none;edgeStyle=orthogonalEdgeStyle;" parent="WIyWlLk6GJQsqaUBKTNV-1" source="WIyWlLk6GJQsqaUBKTNV-3" target="WIyWlLk6GJQsqaUBKTNV-6" edge="1">
          <mxGeometry relative="1" as="geometry" />
        </mxCell>
        <mxCell id="WIyWlLk6GJQsqaUBKTNV-3" value="Generate Lines" style="rounded=1;whiteSpace=wrap;html=1;fontSize=12;glass=0;strokeWidth=1;shadow=0;" parent="WIyWlLk6GJQsqaUBKTNV-1" vertex="1">
          <mxGeometry x="304" y="200" width="120" height="40" as="geometry" />
        </mxCell>
        <mxCell id="WIyWlLk6GJQsqaUBKTNV-4" value="Yes" style="rounded=0;html=1;jettySize=auto;orthogonalLoop=1;fontSize=11;endArrow=block;endFill=0;endSize=8;strokeWidth=1;shadow=0;labelBackgroundColor=none;edgeStyle=orthogonalEdgeStyle;entryX=0.5;entryY=0;entryDx=0;entryDy=0;" parent="WIyWlLk6GJQsqaUBKTNV-1" source="ko6Ww9sfY5lsD-ByI2Rv-1" target="ko6Ww9sfY5lsD-ByI2Rv-12" edge="1">
          <mxGeometry y="20" relative="1" as="geometry">
            <mxPoint as="offset" />
            <mxPoint x="254" y="550" as="targetPoint" />
            <Array as="points">
              <mxPoint x="234" y="430" />
              <mxPoint x="234" y="510" />
            </Array>
          </mxGeometry>
        </mxCell>
        <mxCell id="ko6Ww9sfY5lsD-ByI2Rv-6" style="edgeStyle=orthogonalEdgeStyle;rounded=0;orthogonalLoop=1;jettySize=auto;html=1;exitX=0.5;exitY=1;exitDx=0;exitDy=0;entryX=0.5;entryY=0;entryDx=0;entryDy=0;" edge="1" parent="WIyWlLk6GJQsqaUBKTNV-1" source="WIyWlLk6GJQsqaUBKTNV-6" target="ko6Ww9sfY5lsD-ByI2Rv-1">
          <mxGeometry relative="1" as="geometry" />
        </mxCell>
        <mxCell id="WIyWlLk6GJQsqaUBKTNV-6" value="Type in Letter" style="rhombus;html=1;shadow=0;fontFamily=Helvetica;fontSize=12;align=center;strokeWidth=1;spacing=6;spacingTop=-4;whiteSpace=wrap;" parent="WIyWlLk6GJQsqaUBKTNV-1" vertex="1">
          <mxGeometry x="274" y="270" width="180" height="70" as="geometry" />
        </mxCell>
        <mxCell id="WIyWlLk6GJQsqaUBKTNV-9" value="No" style="edgeStyle=orthogonalEdgeStyle;rounded=0;html=1;jettySize=auto;orthogonalLoop=1;fontSize=11;endArrow=block;endFill=0;endSize=8;strokeWidth=1;shadow=0;labelBackgroundColor=none;exitX=1;exitY=0.5;exitDx=0;exitDy=0;" parent="WIyWlLk6GJQsqaUBKTNV-1" source="ko6Ww9sfY5lsD-ByI2Rv-1" target="WIyWlLk6GJQsqaUBKTNV-12" edge="1">
          <mxGeometry y="10" relative="1" as="geometry">
            <mxPoint as="offset" />
          </mxGeometry>
        </mxCell>
        <mxCell id="WIyWlLk6GJQsqaUBKTNV-12" value="&lt;div style=&quot;text-align: justify;&quot;&gt;&lt;span style=&quot;background-color: initial;&quot;&gt;Add Hangman Component&lt;/span&gt;&lt;/div&gt;" style="rounded=1;whiteSpace=wrap;html=1;fontSize=12;glass=0;strokeWidth=1;shadow=0;arcSize=50;" parent="WIyWlLk6GJQsqaUBKTNV-1" vertex="1">
          <mxGeometry x="404" y="510" width="170" height="60" as="geometry" />
        </mxCell>
        <mxCell id="ko6Ww9sfY5lsD-ByI2Rv-1" value="letter in Generated word?" style="rhombus;whiteSpace=wrap;html=1;" vertex="1" parent="WIyWlLk6GJQsqaUBKTNV-1">
          <mxGeometry x="294" y="370" width="130" height="120" as="geometry" />
        </mxCell>
        <mxCell id="ko6Ww9sfY5lsD-ByI2Rv-12" value="Show Letter" style="rounded=1;whiteSpace=wrap;html=1;arcSize=50;" vertex="1" parent="WIyWlLk6GJQsqaUBKTNV-1">
          <mxGeometry x="164" y="510" width="120" height="60" as="geometry" />
        </mxCell>
        <mxCell id="ko6Ww9sfY5lsD-ByI2Rv-17" style="edgeStyle=orthogonalEdgeStyle;rounded=0;orthogonalLoop=1;jettySize=auto;html=1;exitX=0.5;exitY=1;exitDx=0;exitDy=0;" edge="1" parent="WIyWlLk6GJQsqaUBKTNV-1" source="ko6Ww9sfY5lsD-ByI2Rv-14">
          <mxGeometry relative="1" as="geometry">
            <mxPoint x="364" y="750" as="targetPoint" />
          </mxGeometry>
        </mxCell>
        <mxCell id="ko6Ww9sfY5lsD-ByI2Rv-23" style="edgeStyle=orthogonalEdgeStyle;rounded=0;orthogonalLoop=1;jettySize=auto;html=1;exitX=0;exitY=0.5;exitDx=0;exitDy=0;entryX=0;entryY=0.5;entryDx=0;entryDy=0;" edge="1" parent="WIyWlLk6GJQsqaUBKTNV-1" source="ko6Ww9sfY5lsD-ByI2Rv-14" target="WIyWlLk6GJQsqaUBKTNV-6">
          <mxGeometry relative="1" as="geometry">
            <Array as="points">
              <mxPoint x="64" y="660" />
              <mxPoint x="64" y="305" />
            </Array>
          </mxGeometry>
        </mxCell>
        <mxCell id="ko6Ww9sfY5lsD-ByI2Rv-14" value="Full Word Shown?" style="rounded=1;whiteSpace=wrap;html=1;" vertex="1" parent="WIyWlLk6GJQsqaUBKTNV-1">
          <mxGeometry x="214" y="630" width="120" height="60" as="geometry" />
        </mxCell>
        <mxCell id="ko6Ww9sfY5lsD-ByI2Rv-19" style="edgeStyle=orthogonalEdgeStyle;rounded=0;orthogonalLoop=1;jettySize=auto;html=1;exitX=0.5;exitY=1;exitDx=0;exitDy=0;" edge="1" parent="WIyWlLk6GJQsqaUBKTNV-1" source="ko6Ww9sfY5lsD-ByI2Rv-30">
          <mxGeometry relative="1" as="geometry">
            <mxPoint x="364" y="750" as="targetPoint" />
            <mxPoint x="464" y="640" as="sourcePoint" />
            <Array as="points">
              <mxPoint x="365" y="720" />
            </Array>
          </mxGeometry>
        </mxCell>
        <mxCell id="ko6Ww9sfY5lsD-ByI2Rv-15" value="Full Hangman Shown?" style="rounded=1;whiteSpace=wrap;html=1;" vertex="1" parent="WIyWlLk6GJQsqaUBKTNV-1">
          <mxGeometry x="404" y="630" width="120" height="60" as="geometry" />
        </mxCell>
        <mxCell id="ko6Ww9sfY5lsD-ByI2Rv-20" value="END GAME" style="rounded=1;whiteSpace=wrap;html=1;" vertex="1" parent="WIyWlLk6GJQsqaUBKTNV-1">
          <mxGeometry x="304" y="750" width="120" height="60" as="geometry" />
        </mxCell>
        <mxCell id="ko6Ww9sfY5lsD-ByI2Rv-24" value="" style="endArrow=none;html=1;rounded=0;exitX=1;exitY=0.5;exitDx=0;exitDy=0;entryX=1;entryY=0.5;entryDx=0;entryDy=0;" edge="1" parent="WIyWlLk6GJQsqaUBKTNV-1" source="ko6Ww9sfY5lsD-ByI2Rv-15" target="WIyWlLk6GJQsqaUBKTNV-6">
          <mxGeometry width="50" height="50" relative="1" as="geometry">
            <mxPoint x="544" y="550" as="sourcePoint" />
            <mxPoint x="594" y="500" as="targetPoint" />
            <Array as="points">
              <mxPoint x="714" y="660" />
              <mxPoint x="714" y="305" />
            </Array>
          </mxGeometry>
        </mxCell>
        <mxCell id="ko6Ww9sfY5lsD-ByI2Rv-26" value="" style="endArrow=classic;html=1;rounded=0;exitX=0.5;exitY=1;exitDx=0;exitDy=0;entryX=0.5;entryY=0;entryDx=0;entryDy=0;" edge="1" parent="WIyWlLk6GJQsqaUBKTNV-1" source="WIyWlLk6GJQsqaUBKTNV-12" target="ko6Ww9sfY5lsD-ByI2Rv-15">
          <mxGeometry width="50" height="50" relative="1" as="geometry">
            <mxPoint x="544" y="550" as="sourcePoint" />
            <mxPoint x="594" y="500" as="targetPoint" />
          </mxGeometry>
        </mxCell>
        <mxCell id="ko6Ww9sfY5lsD-ByI2Rv-27" value="" style="endArrow=classic;html=1;rounded=0;exitX=0.5;exitY=1;exitDx=0;exitDy=0;entryX=0.5;entryY=0;entryDx=0;entryDy=0;" edge="1" parent="WIyWlLk6GJQsqaUBKTNV-1" source="ko6Ww9sfY5lsD-ByI2Rv-12" target="ko6Ww9sfY5lsD-ByI2Rv-14">
          <mxGeometry width="50" height="50" relative="1" as="geometry">
            <mxPoint x="544" y="550" as="sourcePoint" />
            <mxPoint x="594" y="500" as="targetPoint" />
          </mxGeometry>
        </mxCell>
        <mxCell id="ko6Ww9sfY5lsD-ByI2Rv-28" value="No" style="text;html=1;strokeColor=none;fillColor=none;align=center;verticalAlign=middle;whiteSpace=wrap;rounded=0;" vertex="1" parent="WIyWlLk6GJQsqaUBKTNV-1">
          <mxGeometry x="704" y="460" width="60" height="30" as="geometry" />
        </mxCell>
        <mxCell id="ko6Ww9sfY5lsD-ByI2Rv-29" value="No" style="text;html=1;strokeColor=none;fillColor=none;align=center;verticalAlign=middle;whiteSpace=wrap;rounded=0;" vertex="1" parent="WIyWlLk6GJQsqaUBKTNV-1">
          <mxGeometry y="440" width="60" height="30" as="geometry" />
        </mxCell>
        <mxCell id="ko6Ww9sfY5lsD-ByI2Rv-31" value="" style="edgeStyle=orthogonalEdgeStyle;rounded=0;orthogonalLoop=1;jettySize=auto;html=1;entryX=0.5;entryY=0;entryDx=0;entryDy=0;exitX=0.5;exitY=1;exitDx=0;exitDy=0;" edge="1" parent="WIyWlLk6GJQsqaUBKTNV-1" source="ko6Ww9sfY5lsD-ByI2Rv-15" target="ko6Ww9sfY5lsD-ByI2Rv-20">
          <mxGeometry relative="1" as="geometry">
            <mxPoint x="364" y="750" as="targetPoint" />
            <mxPoint x="464" y="710" as="sourcePoint" />
            <Array as="points">
              <mxPoint x="464" y="720" />
              <mxPoint x="364" y="720" />
            </Array>
          </mxGeometry>
        </mxCell>
        <mxCell id="ko6Ww9sfY5lsD-ByI2Rv-30" value="Yes&lt;br&gt;" style="text;html=1;strokeColor=none;fillColor=none;align=center;verticalAlign=middle;whiteSpace=wrap;rounded=0;" vertex="1" parent="WIyWlLk6GJQsqaUBKTNV-1">
          <mxGeometry x="334" y="690" width="60" height="30" as="geometry" />
        </mxCell>
        <mxCell id="ko6Ww9sfY5lsD-ByI2Rv-32" value="&#xa;&lt;span style=&quot;color: rgb(0, 0, 0); font-family: Helvetica; font-size: 12px; font-style: normal; font-variant-ligatures: normal; font-variant-caps: normal; font-weight: 400; letter-spacing: normal; orphans: 2; text-align: center; text-indent: 0px; text-transform: none; widows: 2; word-spacing: 0px; -webkit-text-stroke-width: 0px; background-color: rgb(251, 251, 251); text-decoration-thickness: initial; text-decoration-style: initial; text-decoration-color: initial; float: none; display: inline !important;&quot;&gt;Generate Word&lt;/span&gt;&#xa;&#xa;" style="rounded=1;whiteSpace=wrap;html=1;" vertex="1" parent="WIyWlLk6GJQsqaUBKTNV-1">
          <mxGeometry x="304" y="100" width="120" height="60" as="geometry" />
        </mxCell>
        <mxCell id="ko6Ww9sfY5lsD-ByI2Rv-33" value="Start&lt;br&gt;" style="rounded=0;whiteSpace=wrap;html=1;" vertex="1" parent="WIyWlLk6GJQsqaUBKTNV-1">
          <mxGeometry x="304" y="10" width="120" height="60" as="geometry" />
        </mxCell>
        <mxCell id="ko6Ww9sfY5lsD-ByI2Rv-35" value="" style="endArrow=classic;html=1;rounded=0;exitX=0.5;exitY=1;exitDx=0;exitDy=0;" edge="1" parent="WIyWlLk6GJQsqaUBKTNV-1" source="ko6Ww9sfY5lsD-ByI2Rv-33" target="ko6Ww9sfY5lsD-ByI2Rv-32">
          <mxGeometry width="50" height="50" relative="1" as="geometry">
            <mxPoint x="550" y="340" as="sourcePoint" />
            <mxPoint x="600" y="290" as="targetPoint" />
          </mxGeometry>
        </mxCell>
        <mxCell id="ko6Ww9sfY5lsD-ByI2Rv-38" value="" style="endArrow=classic;html=1;rounded=0;exitX=0.5;exitY=1;exitDx=0;exitDy=0;" edge="1" parent="WIyWlLk6GJQsqaUBKTNV-1" source="ko6Ww9sfY5lsD-ByI2Rv-32" target="WIyWlLk6GJQsqaUBKTNV-3">
          <mxGeometry width="50" height="50" relative="1" as="geometry">
            <mxPoint x="550" y="340" as="sourcePoint" />
            <mxPoint x="600" y="290" as="targetPoint" />
          </mxGeometry>
        </mxCell>
      </root>
    </mxGraphModel>
  </diagram>
</mxfile>
